<?xml version="1.0" encoding="UTF-8" standalone="no"?>
<!-- Created with Inkscape (http://www.inkscape.org/) -->

<svg
   xmlns:dc="http://purl.org/dc/elements/1.1/"
   xmlns:cc="http://creativecommons.org/ns#"
   xmlns:rdf="http://www.w3.org/1999/02/22-rdf-syntax-ns#"
   xmlns:svg="http://www.w3.org/2000/svg"
   xmlns="http://www.w3.org/2000/svg"
   xmlns:sodipodi="http://sodipodi.sourceforge.net/DTD/sodipodi-0.dtd"
   xmlns:inkscape="http://www.inkscape.org/namespaces/inkscape"
   width="1081.9729"
   height="343.37885"
   id="svg2"
   version="1.1"
   inkscape:version="0.48.3.1 r9886"
   sodipodi:docname="normal.svg">
  <sodipodi:namedview
     id="base"
     pagecolor="#ffffff"
     bordercolor="#666666"
     borderopacity="1.0"
     inkscape:pageopacity="0.0"
     inkscape:pageshadow="2"
     inkscape:zoom="1.4142136"
     inkscape:cx="530.46125"
     inkscape:cy="219.94389"
     inkscape:document-units="px"
     inkscape:current-layer="layer1"
     showgrid="true"
     inkscape:window-width="2560"
     inkscape:window-height="1385"
     inkscape:window-x="0"
     inkscape:window-y="27"
     inkscape:window-maximized="1"
     fit-margin-top="1"
     fit-margin-left="1"
     fit-margin-right="1"
     fit-margin-bottom="1"
     inkscape:snap-bbox="false"
     inkscape:bbox-nodes="false"
     inkscape:snap-global="true"
     inkscape:snap-bbox-midpoints="false"
     inkscape:bbox-paths="false"
     inkscape:snap-bbox-edge-midpoints="true"
     objecttolerance="10000"
     guidetolerance="10000"
     inkscape:snap-nodes="true">
    <inkscape:grid
       originy="-513.49999px"
       originx="-539.52716px"
       snapvisiblegridlinesonly="true"
       enabled="true"
       visible="true"
       empspacing="5"
       id="grid2985"
       type="xygrid" />
  </sodipodi:namedview>
  <defs
     id="defs4">
    <marker
       style="overflow:visible"
       id="Arrow2Mend"
       refX="0"
       refY="0"
       orient="auto"
       inkscape:stockid="Arrow2Mend">
      <path
         transform="scale(-0.6,-0.6)"
         d="M 8.7185878,4.0337352 -2.2072895,0.01601326 8.7185884,-4.0017078 c -1.7454984,2.3720609 -1.7354408,5.6174519 -6e-7,8.035443 z"
         style="fill-rule:evenodd;stroke-width:0.625;stroke-linejoin:round"
         id="path4705"
         inkscape:connector-curvature="0" />
    </marker>
    <marker
       style="overflow:visible"
       id="Arrow1Mstart"
       refX="0"
       refY="0"
       orient="auto"
       inkscape:stockid="Arrow1Mstart">
      <path
         transform="matrix(0.4,0,0,0.4,4,0)"
         style="fill-rule:evenodd;stroke:#000000;stroke-width:1pt"
         d="M 0,0 5,-5 -12.5,0 5,5 0,0 z"
         id="path4684"
         inkscape:connector-curvature="0" />
    </marker>
    <marker
       style="overflow:visible"
       id="Arrow1Lend"
       refX="0"
       refY="0"
       orient="auto"
       inkscape:stockid="Arrow1Lend">
      <path
         transform="matrix(-0.8,0,0,-0.8,-10,0)"
         style="fill-rule:evenodd;stroke:#000000;stroke-width:1pt"
         d="M 0,0 5,-5 -12.5,0 5,5 0,0 z"
         id="path4681"
         inkscape:connector-curvature="0" />
    </marker>
    <marker
       style="overflow:visible"
       id="Arrow1Send"
       refX="0"
       refY="0"
       orient="auto"
       inkscape:stockid="Arrow1Send">
      <path
         inkscape:connector-curvature="0"
         transform="matrix(-0.2,0,0,-0.2,-1.2,0)"
         style="fill-rule:evenodd;stroke:#000000;stroke-width:1pt"
         d="M 0,0 5,-5 -12.5,0 5,5 0,0 z"
         id="path4208" />
    </marker>
    <marker
       style="overflow:visible"
       id="Arrow2Send"
       refX="0"
       refY="0"
       orient="auto"
       inkscape:stockid="Arrow2Send">
      <path
         inkscape:connector-curvature="0"
         transform="matrix(-0.3,0,0,-0.3,0.69,0)"
         d="M 8.7185878,4.0337352 -2.2072895,0.01601326 8.7185884,-4.0017078 c -1.7454984,2.3720609 -1.7354408,5.6174519 -6e-7,8.035443 z"
         style="fill-rule:evenodd;stroke-width:0.625;stroke-linejoin:round"
         id="path3956" />
    </marker>
    <marker
       style="overflow:visible"
       id="Arrow1MstartU"
       refX="0"
       refY="0"
       orient="auto"
       inkscape:stockid="Arrow1MstartU">
      <path
         transform="matrix(0.4,0,0,0.4,4,0)"
         style="fill:#ff0000;fill-rule:evenodd;stroke:#ff0000;stroke-width:1pt"
         d="M 0,0 5,-5 -12.5,0 5,5 0,0 z"
         id="path5517"
         inkscape:connector-curvature="0" />
    </marker>
    <marker
       style="overflow:visible"
       id="Arrow2Menda"
       refX="0"
       refY="0"
       orient="auto"
       inkscape:stockid="Arrow2Menda">
      <path
         transform="scale(-0.6,-0.6)"
         d="M 8.7185878,4.0337352 -2.2072895,0.01601326 8.7185884,-4.0017078 c -1.7454984,2.3720609 -1.7354408,5.6174519 -6e-7,8.035443 z"
         style="fill:#ff0000;fill-rule:evenodd;stroke:#ff0000;stroke-width:0.625;stroke-linejoin:round"
         id="path5520"
         inkscape:connector-curvature="0" />
    </marker>
  </defs>
  <metadata
     id="metadata7">
    <rdf:RDF>
      <cc:Work
         rdf:about="">
        <dc:format>image/svg+xml</dc:format>
        <dc:type
           rdf:resource="http://purl.org/dc/dcmitype/StillImage" />
        <dc:title />
      </cc:Work>
    </rdf:RDF>
  </metadata>
  <g
     transform="translate(-539.52716,-195.4834)"
     id="layer1"
     inkscape:groupmode="layer"
     inkscape:label="Layer 1">
    <path
       sodipodi:nodetypes="cccccccccccc"
       inkscape:connector-curvature="0"
       id="path3883"
       d="m 640,327.36229 5,-5e-5 5,-15 c 0,0 134.00118,0 235,0 l 5,15.00004 115,-4e-5 5,-14.99996 265,10e-6 5,15.00004 95,-9e-5 5,-14.99996 240,-4e-5"
       style="fill:none;stroke:#000000;stroke-width:1px;stroke-linecap:butt;stroke-linejoin:miter;stroke-opacity:1" />
    <text
       sodipodi:linespacing="100%"
       id="text2987"
       y="267.34738"
       x="572.32422"
       style="font-size:20px;font-style:normal;font-weight:normal;line-height:100%;letter-spacing:0px;word-spacing:0px;fill:#000000;fill-opacity:1;stroke:none;font-family:Sans"
       xml:space="preserve"><tspan
         y="267.34738"
         x="572.32422"
         id="tspan2989"
         sodipodi:role="line">Din</tspan><tspan
         id="tspan2991"
         y="287.34738"
         x="572.32422"
         sodipodi:role="line">Dout</tspan><tspan
         id="tspan2993"
         y="307.34738"
         x="572.32422"
         sodipodi:role="line" /><tspan
         id="tspan2995"
         y="327.34738"
         x="572.32422"
         sodipodi:role="line">Din</tspan><tspan
         id="tspan2997"
         y="347.34738"
         x="572.32422"
         sodipodi:role="line">Dout</tspan><tspan
         id="tspan2999"
         y="367.34738"
         x="572.32422"
         sodipodi:role="line" /><tspan
         id="tspan3001"
         y="387.34738"
         x="572.32422"
         sodipodi:role="line">Din</tspan><tspan
         id="tspan3003"
         y="407.34738"
         x="572.32422"
         sodipodi:role="line">Dout</tspan><tspan
         id="tspan3005"
         y="427.34738"
         x="572.32422"
         sodipodi:role="line" /><tspan
         id="tspan3007"
         y="447.34738"
         x="572.32422"
         sodipodi:role="line">Din</tspan><tspan
         id="tspan3009"
         y="467.34738"
         x="572.32422"
         sodipodi:role="line">Dout</tspan><tspan
         id="tspan3011"
         y="487.34738"
         x="572.32422"
         sodipodi:role="line">CLK</tspan></text>
    <path
       sodipodi:nodetypes="cccccccccccc"
       inkscape:connector-curvature="0"
       id="path3797"
       d="m 640,467.36224 30,-5e-5 5,-14.99995 c 0,0 120.48248,0 235,0 l 5,15.00004 115,-4e-5 5,-14.99996 225,10e-6 5,15.00004 95,-9e-5 5,-14.99996 255,-4e-5"
       style="fill:none;stroke:#000000;stroke-width:1px;stroke-linecap:butt;stroke-linejoin:miter;stroke-opacity:1" />
    <path
       style="fill:none;stroke:#000000;stroke-width:1;stroke-linecap:butt;stroke-linejoin:miter;stroke-miterlimit:4;stroke-opacity:1;stroke-dasharray:1, 1;stroke-dashoffset:0"
       d="m 880,507.86219 0,-275"
       id="path3555"
       inkscape:connector-curvature="0" />
    <path
       style="fill:none;stroke:#000000;stroke-width:1;stroke-linecap:butt;stroke-linejoin:miter;stroke-miterlimit:4;stroke-opacity:1;stroke-dasharray:1, 1;stroke-dashoffset:0"
       d="m 940,507.86219 0,-275"
       id="path3557"
       inkscape:connector-curvature="0" />
    <path
       style="fill:none;stroke:#000000;stroke-width:1;stroke-linecap:butt;stroke-linejoin:miter;stroke-miterlimit:4;stroke-opacity:1;stroke-dasharray:1, 1;stroke-dashoffset:0"
       d="m 1000,507.86219 0,-275"
       id="path3559"
       inkscape:connector-curvature="0" />
    <path
       style="fill:none;stroke:#000000;stroke-width:1;stroke-linecap:butt;stroke-linejoin:miter;stroke-miterlimit:4;stroke-opacity:1;stroke-dasharray:1, 1;stroke-dashoffset:0"
       d="m 1060,507.86219 0,-275"
       id="path3597"
       inkscape:connector-curvature="0" />
    <path
       style="fill:none;stroke:#000000;stroke-width:1;stroke-linecap:butt;stroke-linejoin:miter;stroke-miterlimit:4;stroke-opacity:1;stroke-dasharray:1, 1;stroke-dashoffset:0"
       d="m 1180,507.86219 0,-275"
       id="path3599"
       inkscape:connector-curvature="0" />
    <path
       style="fill:none;stroke:#000000;stroke-width:1;stroke-linecap:butt;stroke-linejoin:miter;stroke-miterlimit:4;stroke-opacity:1;stroke-dasharray:1, 1;stroke-dashoffset:0"
       d="m 1240,507.86219 0,-275"
       id="path3601"
       inkscape:connector-curvature="0" />
    <path
       style="fill:none;stroke:#000000;stroke-width:1;stroke-linecap:butt;stroke-linejoin:miter;stroke-miterlimit:4;stroke-opacity:1;stroke-dasharray:1, 1;stroke-dashoffset:0"
       d="m 1300,507.86219 0,-275"
       id="path3603"
       inkscape:connector-curvature="0" />
    <path
       style="fill:none;stroke:#000000;stroke-width:1;stroke-linecap:butt;stroke-linejoin:miter;stroke-miterlimit:4;stroke-opacity:1;stroke-dasharray:1, 1;stroke-dashoffset:0"
       d="m 1360,507.86219 0,-275"
       id="path3605"
       inkscape:connector-curvature="0" />
    <path
       inkscape:connector-curvature="0"
       id="path6175"
       d="m 1420,507.86219 0,-275"
       style="fill:none;stroke:#000000;stroke-width:1;stroke-linecap:butt;stroke-linejoin:miter;stroke-miterlimit:4;stroke-opacity:1;stroke-dasharray:1, 1;stroke-dashoffset:0" />
    <path
       inkscape:connector-curvature="0"
       id="path6177"
       d="m 1540,507.86219 0,-275"
       style="fill:none;stroke:#000000;stroke-width:1;stroke-linecap:butt;stroke-linejoin:miter;stroke-miterlimit:4;stroke-opacity:1;stroke-dasharray:1, 1;stroke-dashoffset:0" />
    <path
       style="fill:none;stroke:#000000;stroke-width:1;stroke-linecap:butt;stroke-linejoin:miter;stroke-miterlimit:4;stroke-opacity:1;stroke-dasharray:1, 1;stroke-dashoffset:0"
       d="m 1600,507.36223 0,-275"
       id="path5928"
       inkscape:connector-curvature="0" />
    <path
       inkscape:connector-curvature="0"
       id="path3581"
       d="m 1480,507.86219 0,-275"
       style="fill:none;stroke:#000000;stroke-width:1;stroke-linecap:butt;stroke-linejoin:miter;stroke-miterlimit:4;stroke-opacity:1;stroke-dasharray:1, 1;stroke-dashoffset:0" />
    <path
       style="fill:none;stroke:#000000;stroke-width:1;stroke-linecap:butt;stroke-linejoin:miter;stroke-miterlimit:4;stroke-opacity:1;stroke-dasharray:1, 1;stroke-dashoffset:0"
       d="m 1120,507.86219 0,-275"
       id="path3579"
       inkscape:connector-curvature="0" />
    <path
       sodipodi:nodetypes="ccccccccccc"
       inkscape:connector-curvature="0"
       id="path3811"
       d="m 640,287.36224 5,-15 c 0,0 137.0596,0 235,0 l 5,15.00004 115,-4e-5 5,-14.99996 265,10e-6 5,15.00004 95,-9e-5 5,-14.99996 245,-4e-5"
       style="fill:none;stroke:#000000;stroke-width:1px;stroke-linecap:butt;stroke-linejoin:miter;stroke-opacity:1" />
    <path
       style="fill:none;stroke:#000000;stroke-width:1;stroke-linecap:butt;stroke-linejoin:miter;stroke-miterlimit:4;stroke-opacity:1;stroke-dasharray:1, 1;stroke-dashoffset:0"
       d="m 639.973,507.86219 0,-275"
       id="path3809"
       inkscape:connector-curvature="0" />
    <path
       style="fill:none;stroke:#000000;stroke-width:1;stroke-linecap:butt;stroke-linejoin:miter;stroke-miterlimit:4;stroke-opacity:1;stroke-dasharray:1, 1;stroke-dashoffset:0"
       d="m 700.03572,507.75505 0,-275"
       id="path3857"
       inkscape:connector-curvature="0" />
    <path
       inkscape:connector-curvature="0"
       id="path4624"
       d="m 760,507.86219 0,-275"
       style="fill:none;stroke:#000000;stroke-width:1;stroke-linecap:butt;stroke-linejoin:miter;stroke-miterlimit:4;stroke-opacity:1;stroke-dasharray:1, 1;stroke-dashoffset:0" />
    <path
       style="fill:none;stroke:#000000;stroke-width:1;stroke-linecap:butt;stroke-linejoin:miter;stroke-miterlimit:4;stroke-opacity:1;stroke-dasharray:1, 1;stroke-dashoffset:0"
       d="m 820,507.86219 0,-275"
       id="path4634"
       inkscape:connector-curvature="0" />
    <text
       xml:space="preserve"
       style="font-size:20px;font-style:normal;font-weight:normal;line-height:1000%;letter-spacing:0px;word-spacing:0px;fill:#000000;fill-opacity:1;stroke:none;font-family:Sans"
       x="272.8999"
       y="685.38336"
       id="text3565"
       sodipodi:linespacing="1000%"
       transform="matrix(0.64427419,-0.76479459,0.76479459,0.64427419,0,0)"><tspan
         sodipodi:role="line"
         id="tspan3567"
         x="272.8999"
         y="685.38336"
         style="font-size:12px">Latch1</tspan></text>
    <text
       xml:space="preserve"
       style="font-size:20px;font-style:normal;font-weight:normal;line-height:1000%;letter-spacing:0px;word-spacing:0px;fill:#000000;fill-opacity:1;stroke:none;font-family:Sans"
       x="427.90839"
       y="868.61188"
       id="text3607"
       sodipodi:linespacing="1000%"
       transform="matrix(0.64427419,-0.76479459,0.76479459,0.64427419,0,0)"><tspan
         sodipodi:role="line"
         id="tspan3609"
         x="427.90839"
         y="868.61188"
         style="font-size:12px">Latch1</tspan></text>
    <text
       transform="matrix(0.64427419,-0.76479459,0.76479459,0.64427419,0,0)"
       sodipodi:linespacing="1000%"
       id="text3377"
       y="1052.1626"
       x="582.53424"
       style="font-size:20px;font-style:normal;font-weight:normal;line-height:1000%;letter-spacing:0px;word-spacing:0px;fill:#000000;fill-opacity:1;stroke:none;font-family:Sans"
       xml:space="preserve"><tspan
         style="font-size:12px"
         y="1052.1626"
         x="582.53424"
         id="tspan3379"
         sodipodi:role="line">Latch1</tspan></text>
    <text
       xml:space="preserve"
       style="font-size:20px;font-style:normal;font-weight:normal;line-height:1000%;letter-spacing:0px;word-spacing:0px;fill:#000000;fill-opacity:1;stroke:none;font-family:Sans"
       x="350.21283"
       y="777.15875"
       id="text3573"
       sodipodi:linespacing="1000%"
       transform="matrix(0.64427419,-0.76479459,0.76479459,0.64427419,0,0)"><tspan
         sodipodi:role="line"
         id="tspan3575"
         x="350.21283"
         y="777.15875"
         style="font-size:12px">Latch2</tspan></text>
    <text
       xml:space="preserve"
       style="font-size:20px;font-style:normal;font-weight:normal;line-height:1000%;letter-spacing:0px;word-spacing:0px;fill:#000000;fill-opacity:1;stroke:none;font-family:Sans"
       x="505.22128"
       y="960.38721"
       id="text3615"
       sodipodi:linespacing="1000%"
       transform="matrix(0.64427419,-0.76479459,0.76479459,0.64427419,0,0)"><tspan
         sodipodi:role="line"
         id="tspan3617"
         x="505.22128"
         y="960.38721"
         style="font-size:12px">Latch2</tspan></text>
    <text
       xml:space="preserve"
       style="font-size:20px;font-style:normal;font-weight:normal;line-height:1000%;letter-spacing:0px;word-spacing:0px;fill:#000000;fill-opacity:1;stroke:none;font-family:Sans"
       x="659.84711"
       y="1143.9379"
       id="text5924"
       sodipodi:linespacing="1000%"
       transform="matrix(0.64427419,-0.76479459,0.76479459,0.64427419,0,0)"><tspan
         sodipodi:role="line"
         id="tspan5926"
         x="659.84711"
         y="1143.9379"
         style="font-size:12px">Latch2</tspan></text>
    <text
       xml:space="preserve"
       style="font-size:20px;font-style:normal;font-weight:normal;line-height:1000%;letter-spacing:0px;word-spacing:0px;fill:#000000;fill-opacity:1;stroke:none;font-family:Sans"
       x="698.5036"
       y="1189.8256"
       id="text5930"
       sodipodi:linespacing="1000%"
       transform="matrix(0.64427419,-0.76479459,0.76479459,0.64427419,0,0)"><tspan
         sodipodi:role="line"
         id="tspan5932"
         x="698.5036"
         y="1189.8256"
         style="font-size:12px">Reset</tspan></text>
    <text
       xml:space="preserve"
       style="font-size:20px;font-style:normal;font-weight:normal;line-height:1000%;letter-spacing:0px;word-spacing:0px;fill:#000000;fill-opacity:1;stroke:none;font-family:Sans"
       x="853.45416"
       y="1373.7617"
       id="text5938"
       sodipodi:linespacing="1000%"
       transform="matrix(0.64427419,-0.76479459,0.76479459,0.64427419,0,0)"><tspan
         sodipodi:role="line"
         id="tspan5940"
         x="853.45416"
         y="1373.7617"
         style="font-size:12px">IDLE</tspan></text>
    <text
       xml:space="preserve"
       style="font-size:20px;font-style:normal;font-weight:normal;line-height:100%;letter-spacing:0px;word-spacing:0px;fill:#000000;fill-opacity:1;stroke:none;font-family:Sans"
       x="234.22633"
       y="639.47504"
       id="text3561"
       sodipodi:linespacing="100%"
       transform="matrix(0.64427419,-0.76479459,0.76479459,0.64427419,0,0)"><tspan
         sodipodi:role="line"
         x="234.22633"
         y="639.47504"
         style="font-size:12px;line-height:100%"
         id="tspan3563">Drive1</tspan></text>
    <text
       xml:space="preserve"
       style="font-size:20px;font-style:normal;font-weight:normal;line-height:100%;letter-spacing:0px;word-spacing:0px;fill:#000000;fill-opacity:1;stroke:none;font-family:Sans"
       x="389.25192"
       y="822.72418"
       id="text3583"
       sodipodi:linespacing="100%"
       transform="matrix(0.64427419,-0.76479459,0.76479459,0.64427419,0,0)"><tspan
         sodipodi:role="line"
         x="389.25192"
         y="822.72418"
         style="font-size:12px;line-height:100%"
         id="tspan3585">Drive1</tspan></text>
    <text
       xml:space="preserve"
       style="font-size:20px;font-style:normal;font-weight:normal;line-height:100%;letter-spacing:0px;word-spacing:0px;fill:#000000;fill-opacity:1;stroke:none;font-family:Sans"
       x="543.87775"
       y="1006.2749"
       id="text5916"
       sodipodi:linespacing="100%"
       transform="matrix(0.64427419,-0.76479459,0.76479459,0.64427419,0,0)"><tspan
         sodipodi:role="line"
         x="543.87775"
         y="1006.2749"
         style="font-size:12px;line-height:100%"
         id="tspan5918">Drive1</tspan></text>
    <text
       xml:space="preserve"
       style="font-size:20px;font-style:normal;font-weight:normal;line-height:100%;letter-spacing:0px;word-spacing:0px;fill:#000000;fill-opacity:1;stroke:none;font-family:Sans"
       x="621.19067"
       y="1098.0503"
       id="text5920"
       sodipodi:linespacing="100%"
       transform="matrix(0.64427419,-0.76479459,0.76479459,0.64427419,0,0)"><tspan
         sodipodi:role="line"
         x="621.19067"
         y="1098.0503"
         style="font-size:12px;line-height:100%"
         id="tspan5922">Drive2</tspan></text>
    <text
       transform="matrix(0.64427419,-0.76479459,0.76479459,0.64427419,0,0)"
       sodipodi:linespacing="100%"
       id="text3373"
       y="914.49957"
       x="466.56482"
       style="font-size:20px;font-style:normal;font-weight:normal;line-height:100%;letter-spacing:0px;word-spacing:0px;fill:#000000;fill-opacity:1;stroke:none;font-family:Sans"
       xml:space="preserve"><tspan
         id="tspan3375"
         style="font-size:12px;line-height:100%"
         y="914.49957"
         x="466.56482"
         sodipodi:role="line">Drive2</tspan></text>
    <text
       xml:space="preserve"
       style="font-size:20px;font-style:normal;font-weight:normal;line-height:100%;letter-spacing:0px;word-spacing:0px;fill:#000000;fill-opacity:1;stroke:none;font-family:Sans"
       x="311.55637"
       y="731.27106"
       id="text3569"
       sodipodi:linespacing="100%"
       transform="matrix(0.64427419,-0.76479459,0.76479459,0.64427419,0,0)"><tspan
         sodipodi:role="line"
         x="311.55637"
         y="731.27106"
         style="font-size:12px;line-height:100%"
         id="tspan3571">Drive2</tspan></text>
    <path
       style="fill:none;stroke:#000000;stroke-width:1px;stroke-linecap:butt;stroke-linejoin:miter;stroke-opacity:1"
       d="m 700.16377,492.36731 0,-15 30,0 0,15 30,0"
       id="path3483"
       inkscape:connector-curvature="0" />
    <path
       style="fill:none;stroke:#000000;stroke-width:1px;stroke-linecap:butt;stroke-linejoin:miter;stroke-opacity:1"
       d="m 760,492.36731 0,-15 30,0 0,15 30,0"
       id="path3485"
       inkscape:connector-curvature="0" />
    <path
       style="fill:none;stroke:#000000;stroke-width:1px;stroke-linecap:butt;stroke-linejoin:miter;stroke-opacity:1"
       d="m 820,492.36731 0,-15 30,0 0,15 30,0"
       id="path3541"
       inkscape:connector-curvature="0" />
    <path
       style="fill:none;stroke:#000000;stroke-width:1px;stroke-linecap:butt;stroke-linejoin:miter;stroke-opacity:1"
       d="m 880,492.36224 0,-15 30,0 0,15 30,0"
       id="path3543"
       inkscape:connector-curvature="0" />
    <path
       style="fill:none;stroke:#000000;stroke-width:1px;stroke-linecap:butt;stroke-linejoin:miter;stroke-opacity:1"
       d="m 940,492.36224 0,-15 30,0 0,15 30,0"
       id="path3549"
       inkscape:connector-curvature="0" />
    <path
       style="fill:none;stroke:#000000;stroke-width:1px;stroke-linecap:butt;stroke-linejoin:miter;stroke-opacity:1"
       d="m 1000,492.36224 0,-15 30,0 0,15 30,0"
       id="path3551"
       inkscape:connector-curvature="0" />
    <path
       style="fill:none;stroke:#000000;stroke-width:1px;stroke-linecap:butt;stroke-linejoin:miter;stroke-opacity:1"
       d="m 1060,492.36224 0,-15 30,0 0,15 30,0"
       id="path3553"
       inkscape:connector-curvature="0" />
    <path
       style="fill:none;stroke:#000000;stroke-width:1px;stroke-linecap:butt;stroke-linejoin:miter;stroke-opacity:1"
       d="m 1120,492.36224 0,-15 30,0 0,15 30,0"
       id="path3587"
       inkscape:connector-curvature="0" />
    <path
       style="fill:none;stroke:#000000;stroke-width:1px;stroke-linecap:butt;stroke-linejoin:miter;stroke-opacity:1"
       d="m 1180,492.36224 0,-15 30,0 0,15 30,0"
       id="path3589"
       inkscape:connector-curvature="0" />
    <path
       style="fill:none;stroke:#000000;stroke-width:1px;stroke-linecap:butt;stroke-linejoin:miter;stroke-opacity:1"
       d="m 1240,492.36224 0,-15 30,0 0,15 30,0"
       id="path3591"
       inkscape:connector-curvature="0" />
    <path
       style="fill:none;stroke:#000000;stroke-width:1px;stroke-linecap:butt;stroke-linejoin:miter;stroke-opacity:1"
       d="m 1300,492.36224 0,-15 30,0 0,15 30,0"
       id="path3593"
       inkscape:connector-curvature="0" />
    <path
       inkscape:connector-curvature="0"
       id="path3619"
       d="m 1360,491.86229 0,-15 30,0 0,15 30,0"
       style="fill:none;stroke:#000000;stroke-width:1px;stroke-linecap:butt;stroke-linejoin:miter;stroke-opacity:1" />
    <path
       inkscape:connector-curvature="0"
       id="path6171"
       d="m 1420,491.86229 0,-15 30,0 0,15 30,0"
       style="fill:none;stroke:#000000;stroke-width:1px;stroke-linecap:butt;stroke-linejoin:miter;stroke-opacity:1" />
    <path
       style="fill:none;stroke:#000000;stroke-width:1px;stroke-linecap:butt;stroke-linejoin:miter;stroke-opacity:1"
       d="m 1480,491.86229 0,-15 30,0 0,15 30,0"
       id="path3595"
       inkscape:connector-curvature="0" />
    <path
       style="fill:none;stroke:#000000;stroke-width:1px;stroke-linecap:butt;stroke-linejoin:miter;stroke-opacity:1"
       d="m 639.95561,492.36731 0,-15 30,0 0,15 30,0"
       id="path3373"
       inkscape:connector-curvature="0" />
    <text
       sodipodi:linespacing="100%"
       id="text3827"
       y="287.36218"
       x="553.5545"
       style="font-size:20px;font-style:normal;font-weight:normal;text-align:center;line-height:100%;letter-spacing:0px;word-spacing:0px;text-anchor:middle;fill:#0000ff;fill-opacity:1;stroke:none;font-family:Sans"
       xml:space="preserve"><tspan
         y="287.36218"
         x="553.5545"
         id="tspan3829"
         sodipodi:role="line">TX</tspan><tspan
         id="tspan3831"
         y="307.36218"
         x="553.5545"
         sodipodi:role="line" /><tspan
         id="tspan3833"
         y="327.36218"
         x="553.5545"
         sodipodi:role="line" /><tspan
         id="tspan3835"
         y="347.36218"
         x="553.5545"
         sodipodi:role="line">RX</tspan><tspan
         id="tspan3837"
         y="367.36218"
         x="553.5545"
         sodipodi:role="line" /><tspan
         id="tspan3841"
         y="387.36218"
         x="553.5545"
         sodipodi:role="line" /><tspan
         id="tspan3843"
         y="407.36218"
         x="553.5545"
         sodipodi:role="line">Fw</tspan><tspan
         y="427.36218"
         x="553.5545"
         sodipodi:role="line"
         id="tspan3196" /><tspan
         id="tspan3845"
         y="447.36218"
         x="553.5545"
         sodipodi:role="line" /><tspan
         id="tspan3847"
         y="467.36218"
         x="553.5545"
         sodipodi:role="line">Ctl</tspan></text>
    <path
       sodipodi:nodetypes="cccccccccccc"
       inkscape:connector-curvature="0"
       id="path3887"
       d="m 640,387.36224 15,-5e-5 5,-14.99995 c 0,0 128.29161,0 235,0 l 5,15.00004 115,-4e-5 5,-14.99996 225,10e-6 5,15.00004 135,-9e-5 5,-14.99996 230,-4e-5"
       style="fill:none;stroke:#000000;stroke-width:1px;stroke-linecap:butt;stroke-linejoin:miter;stroke-opacity:1" />
    <path
       sodipodi:nodetypes="cccccccccccc"
       inkscape:connector-curvature="0"
       id="path3891"
       d="m 640,407.36224 20,-5e-5 5,-14.99995 c 0,0 125.6002,0 235,0 l 5,15.00004 115,-4e-5 5,-14.99996 225,10e-6 5,15.00004 135,-9e-5 5,-14.99996 225,-4e-5"
       style="fill:none;stroke:#000000;stroke-width:1px;stroke-linecap:butt;stroke-linejoin:miter;stroke-opacity:1" />
    <path
       style="fill:none;stroke:#000000;stroke-width:1px;stroke-linecap:butt;stroke-linejoin:miter;stroke-opacity:1"
       d="m 640,447.36224 25,-5e-5 5,-14.99995 c 0,0 122.99975,0 235,0 l 5,15.00004 115,-4e-5 5,-14.99996 225,10e-6 5,15.00004 135,-9e-5 5,-14.99996 220,-4e-5"
       id="path3879"
       inkscape:connector-curvature="0"
       sodipodi:nodetypes="cccccccccccc" />
    <path
       sodipodi:nodetypes="cccccccccccc"
       inkscape:connector-curvature="0"
       id="path3873"
       d="m 640,347.36224 10,-5e-5 5,-14.99995 c 0,0 131.08619,0 235,0 l 5,15.00004 115,-4e-5 5,-14.99996 225,10e-6 5,15 135,-10e-6 5,-15 235,-4e-5"
       style="fill:none;stroke:#000000;stroke-width:1px;stroke-linecap:butt;stroke-linejoin:miter;stroke-opacity:1" />
    <path
       sodipodi:nodetypes="cc"
       style="fill:none;stroke:#000000;stroke-width:0.80000001;stroke-linecap:butt;stroke-linejoin:miter;stroke-miterlimit:4;stroke-opacity:1;stroke-dasharray:0.8, 1.6;stroke-dashoffset:0;marker-end:url(#Arrow2Send)"
       d="m 675,457.36224 c 0,0 38.80773,-66.55273 3.82814,-199.02506"
       id="path4734"
       inkscape:connector-curvature="0" />
    <path
       sodipodi:nodetypes="cccccccccccc"
       inkscape:connector-curvature="0"
       id="path4758"
       d="m 531.23047,74.867831 35,0 5,-15 c 0,0 118.04442,4e-6 235,4e-6 l 5,15.000037 115,-3.7e-5 5,-14.999963 225.00003,1e-5 5,15.000037 95,-8.4e-5 5,-14.999963 250,-3.7e-5"
       style="fill:none;stroke:#000000;stroke-width:1px;stroke-linecap:butt;stroke-linejoin:miter;stroke-opacity:1"
       transform="translate(108.76953,192.49441)" />
    <path
       sodipodi:nodetypes="ccc"
       inkscape:connector-curvature="0"
       id="path3623"
       d="m 1540,493.36224 0,-16 80,0"
       style="fill:none;stroke:#000000;stroke-width:1px;stroke-linecap:butt;stroke-linejoin:miter;stroke-opacity:1" />
    <path
       inkscape:connector-curvature="0"
       id="path6163"
       d="m 643.88405,279.56041 c 0,0 18,9 5,41"
       style="fill:none;stroke:#000000;stroke-width:0.80000001;stroke-linecap:butt;stroke-linejoin:miter;stroke-miterlimit:4;stroke-opacity:1;stroke-dasharray:0.8, 0.8;stroke-dashoffset:0;marker-end:url(#Arrow2Send)" />
    <path
       inkscape:connector-curvature="0"
       id="path6165"
       d="m 653.14202,337.76223 c 0,0 18,9 5,40.99999"
       style="fill:none;stroke:#000000;stroke-width:0.80000001;stroke-linecap:butt;stroke-linejoin:miter;stroke-miterlimit:4;stroke-opacity:1;stroke-dasharray:0.8, 0.8;stroke-dashoffset:0;marker-end:url(#Arrow2Send)" />
    <path
       style="fill:none;stroke:#000000;stroke-width:0.80000001;stroke-linecap:butt;stroke-linejoin:miter;stroke-miterlimit:4;stroke-opacity:1;stroke-dasharray:0.8, 0.8;stroke-dashoffset:0;marker-end:url(#Arrow2Send)"
       d="m 663.88405,399.56041 c 0,0 18,9 5,40.99999"
       id="path5967"
       inkscape:connector-curvature="0" />
    <rect
       style="opacity:0.25;fill:#ffff00;stroke:none"
       id="rect3198"
       width="455"
       height="45"
       x="640"
       y="247.36224" />
    <rect
       style="opacity:0.25;fill:#ffff00;stroke:none"
       id="rect3200"
       width="240"
       height="50"
       x="988.56836"
       y="111.87881"
       transform="translate(106.43164,195.48343)" />
    <rect
       style="opacity:0.25;fill:#ffff00;stroke:none"
       id="rect3202"
       width="265"
       height="45"
       x="1228.5684"
       y="231.87881"
       transform="translate(106.43164,195.48343)" />
    <rect
       style="fill:#b3b3b3;fill-opacity:0.39215686;stroke:#000000;stroke-width:1;stroke-miterlimit:4;stroke-opacity:0.39215686;stroke-dasharray:none"
       id="rect3204"
       width="240"
       height="25"
       x="533.56836"
       y="316.87881"
       transform="translate(106.43164,195.48343)" />
    <text
       xml:space="preserve"
       style="font-size:16.09589958px;font-style:normal;font-weight:normal;line-height:125%;letter-spacing:0px;word-spacing:0px;fill:#000000;fill-opacity:1;stroke:none;font-family:Sans"
       x="729.16394"
       y="530.86285"
       id="text4016"
       sodipodi:linespacing="125%"><tspan
         sodipodi:role="line"
         id="tspan4018"
         x="729.16394"
         y="530.86285">Last Bit</tspan></text>
    <rect
       style="fill:#b3b3b3;fill-opacity:0.39215686;stroke:#000000;stroke-width:1;stroke-miterlimit:4;stroke-opacity:0.39215686;stroke-dasharray:none"
       id="rect3204-8"
       width="240"
       height="25"
       x="880"
       y="512.36224" />
    <text
       xml:space="preserve"
       style="font-size:16.09589958px;font-style:normal;font-weight:normal;line-height:125%;letter-spacing:0px;word-spacing:0px;fill:#000000;fill-opacity:1;stroke:none;font-family:Sans"
       x="904.19482"
       y="530.86285"
       id="text4016-4"
       sodipodi:linespacing="125%"><tspan
         sodipodi:role="line"
         id="tspan4018-1"
         x="904.19482"
         y="530.86285">Message End Sequence</tspan></text>
    <rect
       style="fill:#b3b3b3;fill-opacity:0.39215686;stroke:#000000;stroke-width:1;stroke-miterlimit:4;stroke-opacity:0.39215686;stroke-dasharray:none"
       id="rect3204-0"
       width="240"
       height="25"
       x="1120"
       y="512.36224" />
    <text
       xml:space="preserve"
       style="font-size:16.09589958px;font-style:normal;font-weight:normal;line-height:125%;letter-spacing:0px;word-spacing:0px;fill:#000000;fill-opacity:1;stroke:none;font-family:Sans"
       x="1165.6429"
       y="530.86285"
       id="text4016-7"
       sodipodi:linespacing="125%"><tspan
         sodipodi:role="line"
         id="tspan4018-5"
         x="1165.6429"
         y="530.86285">Acknowledgement</tspan></text>
    <rect
       style="fill:#b3b3b3;fill-opacity:0.39215686;stroke:#000000;stroke-width:1;stroke-miterlimit:4;stroke-opacity:0.39215686;stroke-dasharray:none"
       id="rect3204-6"
       width="240"
       height="25"
       x="1360"
       y="512.36224" />
    <text
       xml:space="preserve"
       style="font-size:16.09589958px;font-style:normal;font-weight:normal;line-height:125%;letter-spacing:0px;word-spacing:0px;fill:#000000;fill-opacity:1;stroke:none;font-family:Sans"
       x="1414.8619"
       y="530.86285"
       id="text4016-6"
       sodipodi:linespacing="125%"><tspan
         sodipodi:role="line"
         id="tspan4018-0"
         x="1414.8619"
         y="530.86285">Reset Sequence</tspan></text>
  </g>
</svg>
